<?xml version="1.0" encoding="utf-8"?>
<!-- Generator: Adobe Illustrator 22.0.0, SVG Export Plug-In . SVG Version: 6.00 Build 0)  -->
<svg version="1.1" id="图层_1" xmlns="http://www.w3.org/2000/svg" xmlns:xlink="http://www.w3.org/1999/xlink" x="0px" y="0px"
	 viewBox="0 0 1080 1080" style="enable-background:new 0 0 1080 1080;" xml:space="preserve">
<style type="text/css">
	.st0{fill:#FFFFFF;}
</style>
<circle class="st0" cx="540" cy="540" r="460"/>
<g>
	<polygon points="780,716 300,780 300,300 780,364 	"/>
</g>
<g>
	<path class="st0" d="M355.7,622.3c3.3,0,5.6-0.6,7.1-1.7c1.5-1.1,2.2-2.7,2.2-4.7c0-1.2-0.3-2.2-0.8-3.1c-0.5-0.9-1.2-1.6-2.2-2.3
		c-0.9-0.7-2.1-1.3-3.4-1.9c-1.3-0.6-2.9-1.2-4.6-1.8c-1.7-0.6-3.4-1.3-5-2.1c-1.6-0.7-3-1.7-4.2-2.8c-1.2-1.1-2.2-2.4-3-4
		c-0.7-1.5-1.1-3.4-1.1-5.5c0-4.5,1.6-8.1,4.7-10.6c3.1-2.6,7.4-3.9,12.7-3.9c3.1,0,5.9,0.3,8.3,1c2.4,0.7,4.3,1.5,5.7,2.3l-2.8,7.3
		c-1.6-0.9-3.4-1.6-5.4-2.1c-1.9-0.5-3.9-0.7-6-0.7c-2.4,0-4.4,0.5-5.7,1.5c-1.4,1-2.1,2.4-2.1,4.2c0,1.1,0.2,2.1,0.7,2.8
		c0.5,0.8,1.1,1.5,1.9,2.1s1.8,1.2,3,1.7c1.1,0.5,2.4,1,3.7,1.5c2.4,0.9,4.5,1.7,6.3,2.6c1.8,0.9,3.4,1.9,4.7,3.2
		c1.3,1.2,2.2,2.7,2.9,4.3c0.7,1.7,1,3.7,1,6c0,4.5-1.6,8-4.8,10.5c-3.2,2.5-7.9,3.7-14,3.7c-2.1,0-3.9-0.1-5.7-0.4
		c-1.7-0.3-3.2-0.6-4.5-1s-2.5-0.8-3.4-1.2c-1-0.4-1.7-0.8-2.3-1.1l2.7-7.4c1.3,0.7,3,1.4,5.3,2.2
		C349.9,622,352.6,622.3,355.7,622.3z"/>
	<path class="st0" d="M396.6,578.7c7.2,0,12.8,1.3,16.7,4c3.9,2.6,5.8,6.8,5.8,12.4c0,2.9-0.5,5.4-1.5,7.5c-1,2.1-2.5,3.8-4.5,5.1
		c-2,1.3-4.4,2.3-7.2,2.9c-2.8,0.6-6.1,0.9-9.7,0.9h-4.5v17.6h-9.1v-49.2c2.1-0.5,4.5-0.8,7-1C392.1,578.8,394.4,578.7,396.6,578.7z
		 M397.3,586.5c-2.3,0-4.2,0.1-5.7,0.2v17h4.4c4.4,0,7.7-0.6,10.1-1.8c2.4-1.2,3.5-3.5,3.5-6.9c0-1.6-0.3-3-0.9-4.1
		c-0.6-1.1-1.5-2-2.6-2.6c-1.1-0.6-2.4-1.1-3.9-1.3C400.6,586.7,399,586.5,397.3,586.5z"/>
	<path class="st0" d="M457.3,629.1c-0.7-2-1.4-3.9-2.1-5.8c-0.7-1.9-1.4-3.9-2.1-5.9H432c-0.7,2-1.4,4-2.1,5.9
		c-0.7,1.9-1.4,3.9-2.1,5.8h-9.4c1.9-5.3,3.6-10.2,5.3-14.8c1.7-4.5,3.3-8.8,4.9-12.8s3.2-7.9,4.8-11.5c1.6-3.6,3.2-7.2,4.9-10.8
		h8.7c1.7,3.6,3.3,7.2,4.9,10.8c1.6,3.6,3.2,7.5,4.8,11.5s3.3,8.3,5,12.8c1.7,4.5,3.5,9.4,5.4,14.8H457.3z M442.6,588.8
		c-1.1,2.5-2.4,5.6-3.8,9.3c-1.4,3.6-2.9,7.6-4.4,11.9h16.4c-1.5-4.3-3-8.3-4.5-12C444.9,594.4,443.6,591.3,442.6,588.8z"/>
	<path class="st0" d="M494.3,630.2c-3.7,0-7.1-0.6-10.1-1.7c-3-1.2-5.5-2.8-7.6-5.1c-2.1-2.2-3.6-5-4.8-8.2
		c-1.1-3.2-1.7-6.9-1.7-11.1c0-4.2,0.6-7.9,1.9-11.1c1.3-3.2,3-5.9,5.2-8.2c2.2-2.2,4.8-3.9,7.8-5.1c3-1.2,6.2-1.7,9.6-1.7
		c2.1,0,3.9,0.2,5.6,0.5c1.7,0.3,3.1,0.7,4.4,1c1.2,0.4,2.3,0.8,3.1,1.2c0.8,0.4,1.4,0.7,1.7,0.9l-2.7,7.4c-1.2-0.7-2.8-1.4-4.9-2.1
		c-2.1-0.6-4.5-1-6.9-1c-2.2,0-4.2,0.4-6,1.1c-1.9,0.7-3.5,1.9-4.9,3.3c-1.4,1.5-2.4,3.4-3.2,5.6c-0.8,2.3-1.2,4.9-1.2,7.8
		c0,2.6,0.3,5.1,0.9,7.3c0.6,2.2,1.5,4.1,2.8,5.7s2.8,2.9,4.8,3.7c1.9,0.9,4.2,1.3,6.9,1.3c3.2,0,5.8-0.3,7.8-1
		c2-0.6,3.6-1.3,4.7-1.8l2.4,7.4c-0.6,0.4-1.4,0.8-2.3,1.2c-1,0.4-2.1,0.8-3.5,1.1c-1.3,0.4-2.9,0.6-4.5,0.9
		C498,630.1,496.2,630.2,494.3,630.2z"/>
	<path class="st0" d="M518.1,629.1v-49.9h32v7.7h-23v12.3h20.4v7.6h-20.4v14.6h24.7v7.7H518.1z"/>
	<path class="st0" d="M357.4,650.7c7.2,0,12.7,1.3,16.5,4c3.8,2.6,5.7,6.7,5.7,12.1c0,6.8-3.3,11.4-10,13.8c0.9,1.1,1.9,2.4,3.1,4
		c1.2,1.6,2.3,3.3,3.5,5.1c1.2,1.8,2.4,3.7,3.5,5.7c1.1,1.9,2.1,3.9,3,5.7h-10.2c-0.9-1.7-1.9-3.5-3-5.2c-1.1-1.8-2.1-3.5-3.2-5.1
		s-2.1-3.2-3.2-4.7c-1.1-1.5-2-2.8-3-3.9c-0.7,0-1.2,0.1-1.7,0.1c-0.5,0-0.9,0-1.4,0h-4.4v18.9h-9.1v-49.2c2.2-0.5,4.6-0.8,7.1-1
		C353.2,650.8,355.4,650.7,357.4,650.7z M358,658.5c-1.9,0-3.7,0.1-5.3,0.2v16.1h4c2.2,0,4.2-0.1,5.8-0.4c1.7-0.2,3.1-0.7,4.2-1.3
		c1.1-0.6,2-1.5,2.6-2.5c0.6-1.1,0.9-2.4,0.9-4c0-1.5-0.3-2.8-0.9-3.9s-1.4-1.9-2.5-2.5c-1.1-0.6-2.4-1.1-3.9-1.3
		C361.4,658.7,359.8,658.5,358,658.5z"/>
	<path class="st0" d="M424.7,701.1c-0.7-2-1.4-3.9-2.1-5.8c-0.7-1.9-1.4-3.9-2.1-5.9h-21.1c-0.7,2-1.4,4-2.1,5.9
		c-0.7,1.9-1.4,3.9-2.1,5.8h-9.4c1.9-5.3,3.6-10.2,5.3-14.8c1.7-4.5,3.3-8.8,4.9-12.8s3.2-7.9,4.8-11.5c1.6-3.6,3.2-7.2,4.9-10.8
		h8.7c1.7,3.6,3.3,7.2,4.9,10.8c1.6,3.6,3.2,7.5,4.8,11.5s3.3,8.3,5,12.8c1.7,4.5,3.5,9.4,5.4,14.8H424.7z M410,660.8
		c-1.1,2.5-2.4,5.6-3.8,9.3c-1.4,3.6-2.9,7.6-4.4,11.9h16.4c-1.5-4.3-3-8.3-4.5-12C412.3,666.4,411,663.3,410,660.8z"/>
	<path class="st0" d="M483.1,676.1c0,4.3-0.7,8.1-2,11.3c-1.3,3.2-3.3,5.9-5.7,8c-2.5,2.1-5.4,3.7-8.9,4.8c-3.5,1-7.3,1.5-11.6,1.5
		c-2,0-4.3-0.1-6.8-0.3c-2.5-0.2-5-0.5-7.3-1v-48.5c2.3-0.5,4.8-0.9,7.3-1c2.6-0.1,4.9-0.2,6.9-0.2c4.2,0,8,0.5,11.4,1.5
		c3.5,1,6.4,2.5,8.9,4.6c2.5,2.1,4.4,4.7,5.7,7.9C482.4,667.9,483.1,671.7,483.1,676.1z M449.8,693.6c0.5,0,1.2,0.1,2.1,0.1
		c0.9,0,2,0,3.5,0c6.1,0,10.6-1.5,13.6-4.6c3-3.1,4.5-7.4,4.5-13c0-5.7-1.5-10-4.4-13c-2.9-3-7.5-4.5-13.6-4.5
		c-2.7,0-4.6,0.1-5.8,0.2V693.6z"/>
	<path class="st0" d="M493,651.2h9.1v49.9H493V651.2z"/>
	<circle class="st0" cx="537" cy="677" r="24"/>
	<circle cx="546" cy="667" r="6"/>
</g>
<g>
</g>
<g>
</g>
<g>
</g>
<g>
</g>
<g>
</g>
<g>
</g>
<g>
</g>
<g>
</g>
<g>
</g>
<g>
</g>
<g>
</g>
<g>
</g>
<g>
</g>
<g>
</g>
<g>
</g>
</svg>
