<?xml version="1.0" encoding="utf-8"?>
<!-- Generator: Adobe Illustrator 22.0.0, SVG Export Plug-In . SVG Version: 6.00 Build 0)  -->
<svg version="1.1" id="图层_1" xmlns="http://www.w3.org/2000/svg" xmlns:xlink="http://www.w3.org/1999/xlink" x="0px" y="0px"
	 viewBox="0 0 1080 1080" style="enable-background:new 0 0 1080 1080;" xml:space="preserve">
<style type="text/css">
	.st0{fill:#FFFFFF;}
</style>
<g>
	<circle class="st0" cx="540" cy="540" r="400"/>
	<g>
		<polygon points="748.7,693 331.3,748.7 331.3,331.3 748.7,387 		"/>
	</g>
	<g>
		<path class="st0" d="M379.7,611.6c2.9,0,4.9-0.5,6.2-1.5c1.3-1,1.9-2.3,1.9-4.1c0-1-0.3-1.9-0.7-2.7s-1-1.4-1.9-2
			c-0.8-0.6-1.8-1.1-3-1.7c-1.1-0.5-2.5-1-4-1.6c-1.5-0.5-3-1.1-4.3-1.8c-1.4-0.6-2.6-1.5-3.7-2.4s-1.9-2.1-2.6-3.5
			c-0.6-1.3-1-3-1-4.8c0-3.9,1.4-7,4.1-9.2c2.7-2.3,6.4-3.4,11-3.4c2.7,0,5.1,0.3,7.2,0.9c2.1,0.6,3.7,1.3,5,2l-2.4,6.3
			c-1.4-0.8-3-1.4-4.7-1.8c-1.7-0.4-3.4-0.6-5.2-0.6c-2.1,0-3.8,0.4-5,1.3c-1.2,0.9-1.8,2.1-1.8,3.7c0,1,0.2,1.8,0.6,2.4
			c0.4,0.7,1,1.3,1.7,1.8c0.7,0.5,1.6,1,2.6,1.5c1,0.4,2.1,0.9,3.2,1.3c2.1,0.8,3.9,1.5,5.5,2.3s3,1.7,4.1,2.8
			c1.1,1,1.9,2.3,2.5,3.7c0.6,1.5,0.9,3.2,0.9,5.2c0,3.9-1.4,7-4.2,9.1c-2.8,2.2-6.9,3.2-12.2,3.2c-1.8,0-3.4-0.1-5-0.3
			c-1.5-0.3-2.8-0.5-3.9-0.9c-1.1-0.3-2.2-0.7-3-1c-0.9-0.3-1.5-0.7-2-1l2.3-6.4c1.1,0.6,2.6,1.2,4.6,1.9
			C374.7,611.3,377,611.6,379.7,611.6z"/>
		<path class="st0" d="M415.3,573.7c6.3,0,11.1,1.1,14.5,3.5c3.4,2.3,5,5.9,5,10.8c0,2.5-0.4,4.7-1.3,6.5s-2.2,3.3-3.9,4.4
			c-1.7,1.1-3.8,2-6.3,2.5c-2.4,0.5-5.3,0.8-8.4,0.8H411v15.3h-7.9v-42.8c1.8-0.4,3.9-0.7,6.1-0.9
			C411.4,573.7,413.4,573.7,415.3,573.7z M415.9,580.4c-2,0-3.7,0.1-5,0.2v14.8h3.8c3.8,0,6.7-0.5,8.8-1.6c2.1-1,3-3,3-6
			c0-1.4-0.3-2.6-0.8-3.6c-0.5-1-1.3-1.7-2.3-2.3c-1-0.5-2.1-1-3.4-1.1C418.8,580.6,417.4,580.4,415.9,580.4z"/>
		<path class="st0" d="M468.1,617.5c-0.6-1.7-1.2-3.4-1.8-5s-1.2-3.4-1.8-5.1h-18.3c-0.6,1.7-1.2,3.5-1.8,5.1
			c-0.6,1.7-1.2,3.4-1.8,5h-8.2c1.7-4.6,3.1-8.9,4.6-12.9c1.5-3.9,2.9-7.7,4.3-11.1c1.4-3.5,2.8-6.9,4.2-10s2.8-6.3,4.3-9.4h7.6
			c1.5,3.1,2.9,6.3,4.3,9.4c1.4,3.1,2.8,6.5,4.2,10c1.4,3.5,2.9,7.2,4.3,11.1c1.5,3.9,3,8.2,4.7,12.9H468.1z M455.3,582.4
			c-1,2.2-2.1,4.9-3.3,8.1c-1.2,3.1-2.5,6.6-3.8,10.3h14.3c-1.3-3.7-2.6-7.2-3.9-10.4C457.3,587.3,456.2,584.6,455.3,582.4z"/>
		<path class="st0" d="M500.3,618.4c-3.2,0-6.2-0.5-8.8-1.5c-2.6-1-4.8-2.4-6.6-4.4c-1.8-1.9-3.1-4.3-4.2-7.1c-1-2.8-1.5-6-1.5-9.7
			s0.5-6.9,1.7-9.7c1.1-2.8,2.6-5.1,4.5-7.1c1.9-1.9,4.2-3.4,6.8-4.4s5.4-1.5,8.3-1.5c1.8,0,3.4,0.2,4.9,0.4s2.7,0.6,3.8,0.9
			c1,0.3,2,0.7,2.7,1c0.7,0.3,1.2,0.6,1.5,0.8l-2.3,6.4c-1-0.6-2.4-1.2-4.3-1.8c-1.8-0.5-3.9-0.9-6-0.9c-1.9,0-3.7,0.3-5.2,1
			c-1.7,0.6-3,1.7-4.3,2.9c-1.2,1.3-2.1,3-2.8,4.9c-0.7,2-1,4.3-1,6.8c0,2.3,0.3,4.4,0.8,6.3c0.5,1.9,1.3,3.6,2.4,5
			c1.1,1.4,2.4,2.5,4.2,3.2c1.7,0.8,3.7,1.1,6,1.1c2.8,0,5-0.3,6.8-0.9c1.7-0.5,3.1-1.1,4.1-1.6l2.1,6.4c-0.5,0.3-1.2,0.7-2,1
			c-0.9,0.3-1.8,0.7-3,1c-1.1,0.3-2.5,0.5-3.9,0.8C503.5,618.3,501.9,618.4,500.3,618.4z"/>
		<path class="st0" d="M521,617.5v-43.4h27.8v6.7h-20v10.7h17.7v6.6h-17.7v12.7h21.5v6.7H521L521,617.5z"/>
		<path class="st0" d="M381.2,636.3c6.3,0,11,1.1,14.3,3.5c3.3,2.3,5,5.8,5,10.5c0,5.9-2.9,9.9-8.7,12c0.8,1,1.7,2.1,2.7,3.5
			c1,1.4,2,2.9,3,4.4c1,1.6,2.1,3.2,3,5c1,1.7,1.8,3.4,2.6,5h-8.9c-0.8-1.5-1.7-3-2.6-4.5c-1-1.6-1.8-3-2.8-4.4
			c-1-1.4-1.8-2.8-2.8-4.1c-1-1.3-1.7-2.4-2.6-3.4c-0.6,0-1,0.1-1.5,0.1s-0.8,0-1.2,0H377v16.4h-7.9v-42.8c1.9-0.4,4-0.7,6.2-0.9
			C377.6,636.3,379.5,636.3,381.2,636.3z M381.7,643c-1.7,0-3.2,0.1-4.6,0.2v14h3.5c1.9,0,3.7-0.1,5-0.3c1.5-0.2,2.7-0.6,3.7-1.1
			c1-0.5,1.7-1.3,2.3-2.2c0.5-1,0.8-2.1,0.8-3.5c0-1.3-0.3-2.4-0.8-3.4c-0.5-1-1.2-1.7-2.2-2.2c-1-0.5-2.1-1-3.4-1.1
			C384.7,643.2,383.3,643,381.7,643z"/>
		<path class="st0" d="M439.7,680.1c-0.6-1.7-1.2-3.4-1.8-5s-1.2-3.4-1.8-5.1h-18.3c-0.6,1.7-1.2,3.5-1.8,5.1
			c-0.6,1.7-1.2,3.4-1.8,5h-8.2c1.7-4.6,3.1-8.9,4.6-12.9c1.5-3.9,2.9-7.7,4.3-11.1c1.4-3.5,2.8-6.9,4.2-10c1.4-3.1,2.8-6.3,4.3-9.4
			h7.6c1.5,3.1,2.9,6.3,4.3,9.4c1.4,3.1,2.8,6.5,4.2,10c1.4,3.5,2.9,7.2,4.3,11.1c1.5,3.9,3,8.2,4.7,12.9H439.7z M427,645
			c-1,2.2-2.1,4.9-3.3,8.1c-1.2,3.1-2.5,6.6-3.8,10.3h14.3c-1.3-3.7-2.6-7.2-3.9-10.4C429,649.9,427.8,647.2,427,645z"/>
		<path class="st0" d="M490.5,658.3c0,3.7-0.6,7-1.7,9.8c-1.1,2.8-2.9,5.1-5,7c-2.2,1.8-4.7,3.2-7.7,4.2c-3,0.9-6.3,1.3-10.1,1.3
			c-1.7,0-3.7-0.1-5.9-0.3c-2.2-0.2-4.3-0.4-6.3-0.9v-42.2c2-0.4,4.2-0.8,6.3-0.9c2.3-0.1,4.3-0.2,6-0.2c3.7,0,7,0.4,9.9,1.3
			c3,0.9,5.6,2.2,7.7,4c2.2,1.8,3.8,4.1,5,6.9C489.9,651.2,490.5,654.5,490.5,658.3z M461.6,673.6c0.4,0,1,0.1,1.8,0.1s1.7,0,3,0
			c5.3,0,9.2-1.3,11.8-4s3.9-6.4,3.9-11.3c0-5-1.3-8.7-3.8-11.3s-6.5-3.9-11.8-3.9c-2.3,0-4,0.1-5,0.2L461.6,673.6L461.6,673.6z"/>
		<path class="st0" d="M499.1,636.7h7.9v43.4h-7.9V636.7z"/>
		<circle class="st0" cx="537.4" cy="659.1" r="20.9"/>
		<circle cx="545.2" cy="650.4" r="5.2"/>
	</g>
</g>
</svg>
